<svg width="42" height="54" viewBox="0 0 42 54" fill="none" xmlns="http://www.w3.org/2000/svg">
<path d="M21 40.5C32.1838 40.5 41.25 31.4338 41.25 20.25C41.25 9.06623 32.1838 0 21 0C9.81623 0 0.75 9.06623 0.75 20.25C0.75 31.4338 9.81623 40.5 21 40.5Z" fill="#FBBC04"/>
<path d="M21 40.5C32.1838 40.5 41.25 31.4338 41.25 20.25C41.25 9.06623 32.1838 0 21 0C9.81623 0 0.75 9.06623 0.75 20.25C0.75 31.4338 9.81623 40.5 21 40.5Z" fill="url(#paint0_linear_0_1)"/>
<path d="M26.0625 54C34.4503 54 41.25 47.2003 41.25 38.8125C41.25 30.4247 34.4503 23.625 26.0625 23.625C17.6747 23.625 10.875 30.4247 10.875 38.8125C10.875 47.2003 17.6747 54 26.0625 54Z" fill="url(#paint1_linear_0_1)"/>
<defs>
<linearGradient id="paint0_linear_0_1" x1="0.75" y1="0" x2="28.2329" y2="30.7926" gradientUnits="userSpaceOnUse">
<stop stop-color="#FCD35C"/>
<stop offset="1" stop-color="#FBBC04"/>
</linearGradient>
<linearGradient id="paint1_linear_0_1" x1="17.7072" y1="28.9087" x2="41.25" y2="58.6176" gradientUnits="userSpaceOnUse">
<stop stop-color="#D2D2D2" stop-opacity="0.77"/>
<stop offset="1" stop-color="#A7A7A7"/>
</linearGradient>
</defs>
</svg>
